HIERARCHY
ROOT Hips
{
	OFFSET -32.860001 56.121803 44.745396
	CHANNELS 6 Xposition Yposition Zposition Zrotation Xrotation Yrotation
	JOINT Chest
	{
		OFFSET -0.637402 0.831600 5.390099
		CHANNELS 6 Xposition Yposition Zposition Zrotation Xrotation Yrotation
		JOINT Chest2
		{
			OFFSET 0.000000 0.000000 4.429901
			CHANNELS 6 Xposition Yposition Zposition Zrotation Xrotation Yrotation
			JOINT Neck
			{
				OFFSET 0.000000 0.000000 10.301395
				CHANNELS 6 Xposition Yposition Zposition Zrotation Xrotation Yrotation
				JOINT Head
				{
					OFFSET 0.000000 0.000000 2.173897
					CHANNELS 6 Xposition Yposition Zposition Zrotation Xrotation Yrotation
					End Site
					{
						OFFSET 0.000000 0.000000 8.298004
					}
				}
			}
			JOINT LeftCollar
			{
				OFFSET 2.142401 -0.572701 5.717800
				CHANNELS 6 Xposition Yposition Zposition Zrotation Xrotation Yrotation
				JOINT LeftShoulder
				{
					OFFSET 5.674000 0.000000 0.000000
					CHANNELS 6 Xposition Yposition Zposition Zrotation Xrotation Yrotation
					JOINT LeftElbow
					{
						OFFSET 0.000000 0.000000 -12.238701
						CHANNELS 6 Xposition Yposition Zposition Zrotation Xrotation Yrotation
						JOINT LeftWrist
						{
							OFFSET 0.000000 0.000000 -10.253700
							CHANNELS 6 Xposition Yposition Zposition Zrotation Xrotation Yrotation
							End Site
							{
								OFFSET 0.000000 0.000000 -2.173901
							}
						}
					}
				}
			}
			JOINT RightCollar
			{
				OFFSET -2.882599 -1.580101 6.695801
				CHANNELS 6 Xposition Yposition Zposition Zrotation Xrotation Yrotation
				JOINT RightShoulder
				{
					OFFSET -4.235600 0.000000 0.000000
					CHANNELS 6 Xposition Yposition Zposition Zrotation Xrotation Yrotation
					JOINT RightElbow
					{
						OFFSET 0.000000 0.000000 -10.709900
						CHANNELS 6 Xposition Yposition Zposition Zrotation Xrotation Yrotation
						JOINT RightWrist
						{
							OFFSET 0.000000 0.000000 -11.716801
							CHANNELS 6 Xposition Yposition Zposition Zrotation Xrotation Yrotation
							End Site
							{
								OFFSET 0.000000 0.000000 -2.173901
							}
						}
					}
				}
			}
		}
	}
	JOINT LeftHip
	{
		OFFSET 2.279499 0.210400 -2.475502
		CHANNELS 6 Xposition Yposition Zposition Zrotation Xrotation Yrotation
		JOINT LeftKnee
		{
			OFFSET 0.000000 -0.000004 -20.742800
			CHANNELS 6 Xposition Yposition Zposition Zrotation Xrotation Yrotation
			JOINT LeftAnkle
			{
				OFFSET 0.000000 0.000000 -16.666000
				CHANNELS 6 Xposition Yposition Zposition Zrotation Xrotation Yrotation
				End Site
				{
					OFFSET 0.000000 -8.310898 0.000000
				}
			}
		}
	}
	JOINT RightHip
	{
		OFFSET -1.961899 0.232300 -2.727402
		CHANNELS 6 Xposition Yposition Zposition Zrotation Xrotation Yrotation
		JOINT RightKnee
		{
			OFFSET 0.000000 -0.000004 -20.526800
			CHANNELS 6 Xposition Yposition Zposition Zrotation Xrotation Yrotation
			JOINT RightAnkle
			{
				OFFSET 0.000000 0.000000 -16.867300
				CHANNELS 6 Xposition Yposition Zposition Zrotation Xrotation Yrotation
				End Site
				{
					OFFSET 0.000000 -7.186401 0.000000
				}
			}
		}
	}
}
MOTION
Frames: 6
Frame Time: 0.041667
-45.535095 23.366108 46.425201 1167.362275 1.114332 -2.396655 -0.637399 0.831604 5.390100 -7.840305 12.040701 5.099056 0.000000 -0.000002 4.429901 3.396650 -3.646051 -0.328111 0.000002 -0.000005 10.301388 369.335540 40.716796 -5.354855 -0.000000 -0.000010 2.173896 -359.364748 3.648646 -0.262590 2.142395 -0.572699 5.717800 6.501705 -9.992990 -28.877429 5.674010 -0.000004 -0.000006 278.376162 -391.009943 -143.331410 -0.000009 0.000000 -12.238702 -715.370463 -9.984131 -362.520404 -0.000002 -0.000009 -10.253697 900.412090 29.032641 -9.404527 -2.882602 -1.580101 6.695792 -11.324015 -8.938701 29.567650 -4.235609 -0.000007 -0.000013 -259.700294 -38.397975 157.477511 0.000009 0.000000 -10.709895 131.638359 -168.886222 168.277037 0.000000 0.000003 -11.716804 -681.171269 -14.503932 347.064888 2.279503 0.210406 -2.475494 390.155459 -26.935700 2.444139 -0.000001 0.000000 -20.742798 -433.943884 42.391166 29.971550 -0.000006 0.000005 -16.665995 396.067124 17.674542 22.152761 -1.961891 0.232305 -2.727399 -1101.195555 -15.008343 9.475397 0.000000 -0.000008 -20.526798 896.630187 158.152211 -182.159274 -0.000002 -0.000002 -16.867300 17.176589 31.167690 -9.460675
-45.522598 23.588112 46.402893 1167.284247 0.926831 -2.351927 -0.637404 0.831599 5.390098 -7.762923 12.187942 4.968327 -0.000009 0.000005 4.429907 3.344746 -3.644186 -0.326906 -0.000005 -0.000010 10.301393 369.231940 40.579325 -5.369522 0.000002 -0.000007 2.173890 -359.371769 3.644886 -0.279468 2.142400 -0.572703 5.717802 6.463545 -9.928562 -28.802665 5.674009 -0.000003 -0.000001 278.542054 -391.204112 -143.162910 -0.000002 -0.000005 -12.238700 -715.465703 -9.976386 -362.524585 0.000002 0.000004 -10.253691 900.770593 28.999054 -10.073550 -2.882607 -1.580096 6.695801 -11.275853 -8.970292 29.684180 -4.235601 -0.000015 0.000008 -259.968311 -38.521024 157.190957 -0.000004 0.000003 -10.709921 131.627321 -169.006747 168.151471 0.000004 0.000007 -11.716810 -679.915060 -14.372286 347.262254 2.279501 0.210407 -2.475502 389.074022 -26.139120 2.312384 -0.000009 -0.000007 -20.742804 -432.283438 42.370703 28.700930 -0.000007 0.000005 -16.665997 395.300504 17.041389 21.741568 -1.961894 0.232298 -2.727403 -1101.365599 -14.999756 9.642578 0.000002 0.000004 -20.526793 896.706358 158.124726 -181.962947 -0.000002 0.000008 -16.867300 17.370358 31.304844 -9.391376
-45.504700 23.831314 46.377487 1167.171030 0.729638 -2.299283 -0.637401 0.831599 5.390100 -7.680428 12.342049 4.829473 -0.000002 -0.000002 4.429900 3.284125 -3.637513 -0.325327 0.000003 -0.000003 10.301397 369.134842 40.437343 -5.393936 -0.000001 -0.000007 2.173897 -359.389118 3.636526 -0.292949 2.142399 -0.572692 5.717800 6.445060 -9.865417 -28.744093 5.673999 -0.000003 0.000001 278.689695 -391.402679 -142.996636 -0.000005 -0.000004 -12.238708 -715.584822 -9.941780 -362.510542 0.000014 -0.000005 -10.253704 896.745153 28.950037 -9.015518 -2.882602 -1.580096 6.695797 -11.057982 -8.921957 28.967932 -4.235608 -0.000002 -0.000003 -260.550680 -37.797276 156.683064 0.000001 -0.000008 -10.709902 131.636433 -169.121508 168.043008 -0.000006 -0.000006 -11.716802 -678.755677 -14.268417 347.416671 2.279503 0.210401 -2.475497 387.952259 -25.284174 2.152941 0.000001 -0.000004 -20.742800 -430.302819 42.354659 27.265634 -0.000002 -0.000001 -16.665998 394.726550 16.532447 21.318506 -1.961893 0.232298 -2.727399 -1101.553894 -14.999794 9.815303 0.000004 -0.000005 -20.526798 896.767556 158.096299 -181.737100 0.000000 0.000003 -16.867298 17.645678 31.469752 -9.328907
-45.481701 24.094906 46.349094 1167.020110 0.523469 -2.238904 -0.637404 0.831604 5.390099 -7.596369 12.500378 4.685501 -0.000009 -0.000005 4.429902 3.220760 -3.626906 -0.323530 -0.000006 -0.000009 10.301385 369.035859 40.297109 -5.417539 0.000001 -0.000002 2.173895 -359.413871 3.622942 -0.301822 2.142394 -0.572699 5.717797 6.454439 -9.801545 -28.700158 5.674006 -0.000003 -0.000004 278.818267 -391.589772 -142.829255 -0.000005 -0.000005 -12.238697 -715.714650 -9.886211 -362.487182 -0.000000 -0.000000 -10.253684 895.179455 28.895348 -8.835189 -2.882608 -1.580095 6.695790 -10.975808 -8.963214 29.049976 -4.235603 -0.000007 -0.000009 -260.865142 -37.886062 156.316898 0.000001 -0.000004 -10.709902 131.669737 -169.214781 167.951947 -0.000003 -0.000004 -11.716795 -677.884035 -14.189115 347.523959 2.279498 0.210408 -2.475493 386.801973 -24.382389 1.965514 0.000001 -0.000006 -20.742790 -428.055113 42.310263 25.715073 -0.000001 -0.000002 -16.666002 393.920314 16.179277 20.893678 -1.961895 0.232304 -2.727400 -1101.768854 -15.012098 9.990145 0.000000 -0.000013 -20.526806 896.819575 158.068076 -181.479465 -0.000004 0.000004 -16.867298 18.004872 31.664149 -9.265135
-45.454102 24.377810 46.318199 1166.914105 -0.210091 -2.122385 -0.637399 0.831596 5.390101 -7.606787 13.180710 4.558576 -0.000003 -0.000006 4.429903 3.150085 -3.610611 -0.321286 -0.000000 -0.000007 10.301398 368.934717 40.162882 -5.441151 0.000002 0.000004 2.173892 -359.446000 3.607751 -0.306135 2.142398 -0.572694 5.717806 6.494935 -9.739288 -28.675255 5.674010 0.000000 0.000003 278.899628 -391.776673 -142.671519 0.000002 0.000002 -12.238700 -715.873493 -9.825074 -362.464998 -0.000002 -0.000003 -10.253692 893.852759 28.877924 -8.739090 -2.882607 -1.580096 6.695796 -10.889911 -9.028146 29.153273 -4.235606 -0.000001 -0.000002 -261.176107 -38.014603 155.907018 0.000001 -0.000007 -10.709898 131.758365 -169.256117 167.876091 0.000010 0.000008 -11.716805 -677.190307 -14.111869 347.643023 2.279496 0.210400 -2.475490 385.425471 -23.003859 1.465483 0.000000 -0.000003 -20.742794 -425.576055 42.220008 24.085795 -0.000004 0.000001 -16.666002 393.023674 15.974532 20.460393 -1.961893 0.232297 -2.727404 -1102.074846 -14.542767 10.317007 0.000001 -0.000004 -20.526798 896.880118 158.037668 -181.194714 -0.000004 -0.000001 -16.867304 18.421765 31.885584 -9.182213
-45.422699 24.677908 46.285892 1166.657618 -0.205848 -2.079638 -0.637407 0.831595 5.390101 -7.464595 13.119070 4.415297 -0.000008 -0.000002 4.429902 3.077464 -3.589592 -0.318881 -0.000001 0.000000 10.301392 368.831171 40.037954 -5.458456 -0.000002 -0.000002 2.173886 -359.486352 3.592101 -0.310246 2.142397 -0.572702 5.717805 6.564202 -9.678006 -28.667445 5.674000 -0.000001 -0.000005 278.948696 -391.951225 -142.516733 -0.000002 0.000004 -12.238702 -716.047526 -9.778053 -362.454070 0.000007 0.000005 -10.253695 892.753809 28.814943 -8.590496 -2.882603 -1.580089 6.695791 -10.800132 -9.107836 29.277121 -4.235609 -0.000003 0.000000 -261.485050 -38.182923 155.460542 -0.000005 -0.000003 -10.709901 131.893507 -169.233523 167.812270 0.000000 -0.000005 -11.716806 -676.758092 -14.043838 347.734220 2.279497 0.210402 -2.475505 384.369223 -22.236651 1.375853 0.000005 -0.000002 -20.742792 -422.923401 42.063163 22.429269 -0.000010 0.000006 -16.666000 392.060399 15.895884 20.028987 -1.961896 0.232301 -2.727404 -1102.334503 -14.812609 10.426397 0.000005 -0.000002 -20.526808 896.971806 157.998968 -180.882616 0.000004 0.000003 -16.867302 18.882183 32.123022 -9.090243
